# Blender 4.0.2
# www.blender.org
mtllib Cone_003.mtl
o Cone.003
v 0.000000 -2.616209 -4.292947
v 0.000000 0.898905 -0.890624
v 3.035572 -2.616209 -3.035572
v 0.629766 0.898905 -0.629766
v 4.292947 -2.616209 0.000000
v 0.890624 0.898905 0.000000
v 3.035572 -2.616209 3.035572
v 0.629766 0.898905 0.629767
v 0.000000 -2.616209 4.292947
v 0.000000 0.898905 0.890624
v -3.035572 -2.616209 3.035572
v -0.629766 0.898905 0.629767
v -4.292947 -2.616209 0.000000
v -0.890624 0.898905 0.000000
v -3.035572 -2.616209 -3.035572
v -0.629766 0.898905 -0.629766
v -0.000000 -1.280947 -0.970703
v 0.686391 -1.280947 -0.686391
v 0.970703 -1.280947 -0.000000
v 0.686391 -1.280947 0.686391
v -0.000000 -1.280947 0.970703
v -0.686391 -1.280947 0.686391
v -0.970703 -1.280947 -0.000000
v -0.686391 -1.280947 -0.686391
v 0.000000 0.176144 -0.545295
v 0.385582 0.176144 -0.385582
v 0.545295 0.176144 -0.000000
v 0.385582 0.176144 0.385582
v 0.000000 0.176144 0.545295
v -0.385582 0.176144 0.385582
v -0.545295 0.176144 -0.000000
v -0.385582 0.176144 -0.385582
v 0.000000 -2.616209 -4.604331
v 3.255753 -2.616209 -3.255753
v 4.604331 -2.616209 0.000000
v 3.255753 -2.616209 3.255753
v 0.000000 -2.616209 4.604331
v -3.255753 -2.616209 3.255753
v -4.604331 -2.616209 0.000000
v -3.255753 -2.616209 -3.255753
v 0.000000 -2.187119 -1.508827
v 1.066902 -2.187119 -1.066902
v 1.508827 -2.187119 0.000000
v 1.066902 -2.187119 1.066902
v 0.000000 -2.187119 1.508827
v -1.066902 -2.187119 1.066902
v -1.508827 -2.187119 0.000000
v -1.066902 -2.187119 -1.066902
v -2.258444 -2.396246 -2.258444
v -3.193922 -2.396246 0.000000
v -2.258444 -2.396246 2.258444
v 0.000000 -2.396246 3.193922
v 2.258444 -2.396246 2.258444
v 3.193922 -2.396246 0.000000
v 2.258444 -2.396246 -2.258444
v 0.000000 -2.396246 -3.193922
v -3.960262 -2.514355 0.000000
v 0.000000 -2.514355 3.960262
v 3.960262 -2.514355 0.000000
v 0.000000 -2.514355 -3.960262
v -2.800328 -2.514355 -2.800328
v -2.800328 -2.514355 2.800328
v 2.800328 -2.514355 2.800328
v 2.800328 -2.514355 -2.800328
v -1.662673 -2.291683 -1.662673
v -1.662673 -2.291683 1.662673
v 1.662673 -2.291683 1.662673
v 1.662673 -2.291683 -1.662673
v -2.351374 -2.291683 0.000000
v 0.000000 -2.291683 2.351374
v 2.351374 -2.291683 0.000000
v 0.000000 -2.291683 -2.351374
vn 0.3501 -0.4038 -0.8452
vn 0.8452 -0.4038 -0.3501
vn 0.8452 -0.4038 0.3501
vn 0.3501 -0.4038 0.8452
vn -0.3501 -0.4038 0.8452
vn -0.8452 -0.4038 0.3501
vn -0.0000 1.0000 -0.0000
vn -0.8452 -0.4038 -0.3501
vn -0.3501 -0.4038 -0.8452
vn 0.1230 -0.9911 0.0509
vn -0.1414 0.9292 -0.3415
vn -0.3415 0.9292 -0.1414
vn -0.3415 0.9292 0.1414
vn -0.1414 0.9292 0.3415
vn 0.1414 0.9292 0.3415
vn 0.3415 0.9292 0.1414
vn 0.3415 0.9292 -0.1414
vn 0.1414 0.9292 -0.3415
vn -0.3695 0.2604 -0.8920
vn -0.8920 0.2604 -0.3695
vn -0.8920 0.2604 0.3695
vn -0.3695 0.2604 0.8920
vn 0.3695 0.2604 0.8920
vn 0.8920 0.2604 0.3695
vn 0.8920 0.2604 -0.3695
vn 0.3695 0.2604 -0.8920
vn -0.0000 -1.0000 -0.0000
vn 0.0509 -0.9911 -0.1230
vn -0.1230 -0.9911 -0.0509
vn -0.0509 -0.9911 0.1230
vn 0.0509 -0.9911 0.1230
vn 0.1230 -0.9911 -0.0509
vn -0.0509 -0.9911 -0.1230
vn -0.1230 -0.9911 0.0509
vn -0.1520 -0.9864 0.0630
vn -0.0630 -0.9864 -0.1520
vn 0.1520 -0.9864 -0.0630
vn 0.0630 -0.9864 0.1520
vn -0.0630 -0.9864 0.1520
vn -0.1520 -0.9864 -0.0630
vn 0.0630 -0.9864 -0.1520
vn 0.1520 -0.9864 0.0630
vn 0.2906 -0.9492 0.1204
vn 0.1204 -0.9492 -0.2906
vn -0.2906 -0.9492 -0.1204
vn -0.1204 -0.9492 0.2906
vn 0.1204 -0.9492 0.2906
vn 0.2906 -0.9492 -0.1204
vn -0.1204 -0.9492 -0.2906
vn -0.2906 -0.9492 0.1204
vt 1.000000 0.766832
vt 1.000000 1.000000
vt 0.875000 1.000000
vt 0.875000 0.766832
vt 0.750000 1.000000
vt 0.750000 0.766832
vt 0.625000 1.000000
vt 0.625000 0.766832
vt 0.500000 1.000000
vt 0.500000 0.766832
vt 0.375000 1.000000
vt 0.375000 0.766832
vt 0.250000 1.000000
vt 0.250000 0.766832
vt 0.419706 0.419706
vt 0.250000 0.490000
vt 0.080294 0.419706
vt 0.010000 0.250000
vt 0.080294 0.080294
vt 0.250000 0.010000
vt 0.419706 0.080294
vt 0.490000 0.250000
vt 0.125000 1.000000
vt 0.125000 0.766832
vt 0.000000 1.000000
vt 0.000000 0.766832
vt 0.590030 0.250000
vt 0.636884 0.363116
vt 0.125000 0.500000
vt 0.125000 0.627595
vt 0.000000 0.627595
vt 0.000000 0.500000
vt 0.250000 0.500000
vt 0.250000 0.627595
vt 0.375000 0.500000
vt 0.375000 0.627595
vt 0.500000 0.500000
vt 0.500000 0.627595
vt 0.625000 0.500000
vt 0.625000 0.627595
vt 0.750000 0.500000
vt 0.750000 0.627595
vt 0.875000 0.500000
vt 0.875000 0.627595
vt 1.000000 0.500000
vt 1.000000 0.627595
vt 0.863116 0.363116
vt 0.750000 0.409970
vt 0.750000 0.490000
vt 0.919706 0.419706
vt 0.909970 0.250000
vt 0.990000 0.250000
vt 0.863116 0.136884
vt 0.919706 0.080294
vt 0.750000 0.090030
vt 0.750000 0.010000
vt 0.636884 0.136884
vt 0.580294 0.080294
vt 0.510000 0.250000
vt 0.580294 0.419706
vt 0.750000 0.090030
vt 0.909970 0.250000
vt 0.750000 0.409970
vt 0.863116 0.363116
vt 0.863116 0.363116
vt 0.909970 0.250000
vt 0.863116 0.136884
vt 0.750000 0.090030
vt 0.750000 0.090030
vt 0.636884 0.136884
vt 0.590030 0.250000
vt 0.636884 0.363116
vt 0.750000 0.409970
vt 0.750000 0.409970
s 0
usemtl Material.059
f 25/1/1 2/2/1 4/3/1 26/4/1
f 26/4/2 4/3/2 6/5/2 27/6/2
f 27/6/3 6/5/3 8/7/3 28/8/3
f 28/8/4 8/7/4 10/9/4 29/10/4
f 29/10/5 10/9/5 12/11/5 30/12/5
f 30/12/6 12/11/6 14/13/6 31/14/6
f 4/15/7 2/16/7 16/17/7 14/18/7 12/19/7 10/20/7 8/21/7 6/22/7
f 31/14/8 14/13/8 16/23/8 32/24/8
f 32/24/9 16/23/9 2/25/9 25/26/9
f 69/27/10 65/28/10 48/28/10 47/27/10
f 40/29/11 24/30/11 17/31/11 33/32/11
f 39/33/12 23/34/12 24/30/12 40/29/12
f 38/35/13 22/36/13 23/34/13 39/33/13
f 37/37/14 21/38/14 22/36/14 38/35/14
f 36/39/15 20/40/15 21/38/15 37/37/15
f 35/41/16 19/42/16 20/40/16 36/39/16
f 34/43/17 18/44/17 19/42/17 35/41/17
f 33/45/18 17/46/18 18/44/18 34/43/18
f 24/30/19 32/24/19 25/26/19 17/31/19
f 23/34/20 31/14/20 32/24/20 24/30/20
f 22/36/21 30/12/21 31/14/21 23/34/21
f 21/38/22 29/10/22 30/12/22 22/36/22
f 20/40/23 28/8/23 29/10/23 21/38/23
f 19/42/24 27/6/24 28/8/24 20/40/24
f 18/44/25 26/4/25 27/6/25 19/42/25
f 17/46/26 25/1/26 26/4/26 18/44/26
f 3/47/27 1/48/27 33/49/27 34/50/27
f 5/51/27 3/47/27 34/50/27 35/52/27
f 7/53/27 5/51/27 35/52/27 36/54/27
f 9/55/27 7/53/27 36/54/27 37/56/27
f 11/57/27 9/55/27 37/56/27 38/58/27
f 13/27/27 11/57/27 38/58/27 39/59/27
f 15/28/27 13/27/27 39/59/27 40/60/27
f 1/48/27 15/28/27 40/60/27 33/49/27
f 41/48/27 42/47/27 43/51/27 44/53/27 45/55/27 46/57/27 47/27/27 48/28/27
f 70/61/28 66/57/28 46/57/28 45/55/28
f 71/62/29 67/53/29 44/53/29 43/51/29
f 72/63/30 68/64/30 42/47/30 41/48/30
f 65/28/31 72/63/31 41/48/31 48/28/31
f 66/57/32 69/27/32 47/27/32 46/57/32
f 67/53/33 70/61/33 45/55/33 44/53/33
f 68/64/34 71/62/34 43/51/34 42/47/34
f 64/65/35 59/66/35 54/62/35 55/64/35
f 63/67/36 58/68/36 52/69/36 53/53/36
f 62/70/37 57/71/37 50/71/37 51/57/37
f 61/72/38 60/73/38 56/74/38 49/28/38
f 60/73/39 64/65/39 55/64/39 56/74/39
f 59/66/40 63/67/40 53/53/40 54/62/40
f 58/68/41 62/70/41 51/57/41 52/69/41
f 57/71/42 61/72/42 49/28/42 50/71/42
f 13/27/43 15/28/43 61/72/43 57/71/43
f 9/55/44 11/57/44 62/70/44 58/68/44
f 5/51/45 7/53/45 63/67/45 59/66/45
f 1/48/46 3/47/46 64/65/46 60/73/46
f 15/28/47 1/48/47 60/73/47 61/72/47
f 11/57/48 13/27/48 57/71/48 62/70/48
f 7/53/49 9/55/49 58/68/49 63/67/49
f 3/47/50 5/51/50 59/66/50 64/65/50
f 55/64/34 54/62/34 71/62/34 68/64/34
f 53/53/33 52/69/33 70/61/33 67/53/33
f 51/57/32 50/71/32 69/27/32 66/57/32
f 49/28/31 56/74/31 72/63/31 65/28/31
f 56/74/30 55/64/30 68/64/30 72/63/30
f 54/62/29 53/53/29 67/53/29 71/62/29
f 52/69/28 51/57/28 66/57/28 70/61/28
f 50/71/10 49/28/10 65/28/10 69/27/10
