# Blender 4.0.2
# www.blender.org
mtllib Cylinder_006.mtl
o Cylinder.006
v 0.079888 -2.855348 -0.774932
v 0.792191 -2.859307 -0.528441
v 0.760232 1.315539 -1.598344
v 1.129414 -2.711558 0.155231
v 1.015748 1.646398 0.126962
v 0.497182 -3.099196 0.543510
v 0.250223 1.476083 1.101502
v -0.163973 -3.283731 0.569144
v -0.589517 -3.285223 0.337436
v -0.654228 -3.257670 -0.138548
v -0.426263 -3.056793 -0.601264
v -0.344566 5.298134 -0.008189
v -1.301346 4.721985 -0.491525
v -1.376438 4.719270 -1.274758
v -0.837170 4.717056 -2.105634
v 0.785744 7.462777 0.477998
v 0.179380 7.437077 1.330724
v 0.568300 5.848888 -0.233370
v -0.642961 10.805440 0.699952
v -0.654441 0.357773 -1.108981
v 0.556881 -0.727627 0.830593
v -0.809776 -1.402431 -0.550548
v 0.710019 -1.832471 0.619889
v -1.225532 -0.355314 0.127905
v -1.044667 4.146251 -0.020703
v -0.581583 9.919205 0.170221
v -0.824437 -2.032534 -0.355372
v 0.714976 -0.107044 0.654295
v 0.517108 6.185669 0.655340
v -0.400042 -1.512068 0.786329
v 1.087728 0.567399 -0.006123
v 0.603268 1.582103 0.578642
v -1.607985 2.362720 -1.118211
v -1.781101 2.465852 -0.450473
v -0.605546 -0.756327 -0.935215
v -0.406892 -1.875146 -0.837532
v 0.946657 1.931194 -1.217778
v -1.097545 0.831648 0.938069
v 0.166083 -1.818708 -0.966981
v -1.011914 2.681860 -1.800200
v 0.610924 -2.470912 0.590437
v 0.748499 9.902896 1.167340
v 0.206450 0.368118 0.964973
v 0.761968 9.604671 0.427243
v 0.138105 9.624264 -0.009860
v -0.138075 -2.059763 0.716920
v 0.579502 6.642502 1.091805
v 1.094803 1.093244 -0.519333
v 0.170089 -1.366445 0.758053
v 1.044687 -0.117648 -0.821488
v 0.420638 -2.335659 -0.761006
v -0.846512 -2.123681 0.261757
v -1.254993 0.290468 -0.398027
v -1.070598 -0.957757 0.427978
v 1.046388 -1.185499 -0.425783
v -0.911045 -0.211866 -0.638644
v 0.565554 0.306980 -1.341172
v 0.302385 -0.219374 -1.260851
v 0.807557 7.850297 1.366786
v 0.040350 -0.247845 0.957764
v -0.230482 -1.291920 -0.965825
v -1.084041 -0.877605 -0.303846
v -0.767658 -1.534936 0.530546
v -0.899548 -0.373221 0.784487
v -0.741958 -2.696296 0.121156
v -1.325966 0.203653 0.421588
v -0.319403 -0.187133 -1.159150
v 1.272231 -0.583966 -0.394530
v -0.356673 -0.908571 0.912293
v 0.750219 -1.809989 -0.760669
v -0.389264 0.840834 1.133819
v -0.267521 1.401160 1.204628
v -0.249326 3.842967 -2.217902
v 0.045449 0.549835 -1.519030
v 1.210853 -1.667425 0.086839
v -0.157715 -2.648989 0.587271
v 1.192624 -0.012388 -0.184603
v -0.758624 0.217787 1.004066
v 0.964365 -1.215482 0.469743
v 0.631679 2.277965 0.039835
v -0.266884 2.407909 -1.966651
v 0.980007 1.432583 -1.256458
v 0.486265 -0.758845 -1.100793
v 0.007193 -0.752757 -1.222986
v -0.980858 -1.503024 -0.091254
v -1.168900 4.139385 -1.846152
v -0.460692 -0.311189 0.954949
v 0.897560 -0.707849 -0.918493
v 0.365086 3.526602 -1.648080
v 0.630987 6.863355 -0.098994
v 0.445689 3.103347 -0.066020
v 0.162521 8.348580 1.393808
v -0.682093 3.350034 -2.054128
v 1.017603 -1.719627 -0.377974
v -0.176665 6.697444 0.724190
v -0.804629 3.447141 0.327134
v -0.540580 10.944493 -0.041365
v -0.111858 4.343890 -0.022396
v 0.687570 1.078883 0.466884
v 1.022757 0.959028 -1.076654
v -0.741238 -2.649007 -0.250073
v 0.833890 0.530957 0.429860
v 0.484040 -2.997542 0.363922
v 0.183355 -2.957404 -0.564241
v -1.010184 0.856290 -1.045437
v 1.184417 -0.579955 0.277820
v 1.127606 1.590185 -0.685881
v -1.607197 1.072421 -0.291300
v 0.677241 3.124872 -0.983029
v 0.088175 8.069597 0.845734
v -0.316700 12.477999 0.204643
v -0.116917 11.954899 0.821854
v -0.090951 11.463408 0.348633
v -0.136185 10.808558 1.275615
v -0.439186 11.407267 0.784519
v -0.379526 11.894965 -0.025570
v 0.342518 11.004142 0.927381
v -0.391931 12.662321 0.895104
v 1.509519 8.271095 1.408955
v 0.313679 -3.070406 0.019957
v 0.296053 10.311628 0.401095
v -0.498357 9.950370 0.979391
v 0.854504 2.454208 -0.850134
v 1.262494 8.197124 0.693781
v 0.025075 9.371348 1.307734
v 1.191832 9.066793 0.968434
v 0.845841 8.842455 1.606595
v -0.183234 8.856362 0.491191
v 0.600892 8.791304 0.305304
v -0.749745 -2.692734 0.062071
v 1.331037 7.307131 1.497096
v 0.315855 6.371399 -0.801435
v 1.423077 7.180512 0.711515
v -0.093432 7.465502 0.592774
v -0.469464 6.685062 0.093560
v 1.153925 0.485223 -0.771651
v 1.156145 6.544245 0.690249
v -0.751865 6.164985 -0.542124
v -0.028413 5.864331 0.296637
v -0.159038 6.215377 -1.197069
v -1.003677 5.302237 -0.368425
v 0.211442 4.401267 -0.687149
v -0.959728 5.501203 -1.105734
v 0.198601 4.929412 -1.220649
v 0.368096 5.589592 -1.242098
v -0.780449 4.720572 -0.032402
v -1.622306 4.088698 -0.695674
v -0.109245 4.503306 -2.152266
v -1.829028 3.401517 -0.820495
v -1.559136 3.405688 -0.134319
v 0.076653 3.713036 0.054195
v -0.835129 1.973061 -1.644026
v -1.399091 2.491784 0.296321
v -1.548906 1.677485 0.361183
v -1.701415 1.779341 -0.585421
v 0.069936 -3.057622 -0.332118
v -0.377311 5.340221 -1.906828
v -1.419015 3.518995 -1.693562
v 0.446167 3.623293 -0.635646
v -0.823212 2.430104 0.752799
v 0.478848 2.558241 -1.632893
v -1.532641 1.095861 0.555735
v -1.347390 1.514173 -1.137936
v -0.087775 1.504369 -1.808194
v -0.195995 2.619249 0.649220
v -0.552855 1.014653 -1.449802
v -0.727222 1.526943 1.158216
vn -0.5662 -0.0451 0.8230
vn 0.4949 0.4695 -0.7312
vn -0.6621 0.4777 -0.5774
vn -0.2312 0.6009 -0.7652
vn 0.4894 0.5359 -0.6880
vn -0.2223 0.8427 -0.4904
vn 0.9503 0.1986 -0.2397
vn -0.8954 0.1676 0.4125
vn 0.9599 -0.2505 -0.1261
vn -0.1273 0.1137 0.9853
vn 0.9235 0.1817 -0.3378
vn 0.8362 0.0209 -0.5480
vn -0.4170 -0.4478 0.7909
vn -0.0900 0.7026 -0.7058
vn 0.4767 0.4556 -0.7518
vn 0.9756 -0.1677 0.1413
vn 0.5481 0.3328 -0.7673
vn -0.0424 -0.5794 -0.8140
vn 0.3331 -0.2033 -0.9207
vn 0.6360 0.5523 0.5390
vn 0.8497 0.4942 -0.1837
vn 0.8611 0.2697 -0.4309
vn -0.0311 -0.3589 0.9329
vn 0.9069 -0.3861 0.1685
vn 0.7562 -0.0520 -0.6523
vn 0.5466 0.1461 -0.8246
vn 0.8787 0.3725 -0.2986
vn 0.8865 0.2407 -0.3951
vn -0.0117 -0.0693 0.9975
vn 0.1618 0.0402 0.9860
vn -0.3211 0.0365 0.9464
vn 0.9130 -0.0024 -0.4079
vn 0.3069 -0.7239 0.6179
vn -0.6567 0.6211 -0.4279
vn -0.7479 0.0885 0.6579
vn 0.9311 0.1412 -0.3362
vn -0.3476 -0.3160 -0.8828
vn -0.4809 -0.1809 -0.8579
vn -0.1298 0.1113 0.9853
vn 0.4551 0.3465 0.8202
vn -0.9322 -0.3619 -0.0050
vn -0.2168 0.9686 -0.1217
vn -0.0953 0.3735 0.9227
vn 0.6583 0.2748 -0.7008
vn 0.5394 -0.7074 0.4568
vn -0.9885 -0.0286 0.1486
vn -0.9460 -0.2184 0.2395
vn -0.9239 0.1596 0.3477
vn 0.5167 -0.6113 0.5995
vn 0.7387 -0.2896 -0.6086
vn -0.2831 0.8001 -0.5288
vn -0.0041 0.5138 -0.8579
vn -0.5906 0.5920 -0.5484
vn -0.2405 -0.4665 -0.8512
vn 0.9749 -0.1643 0.1501
vn -0.0155 -0.0741 0.9971
vn -0.1561 -0.1118 0.9814
vn 0.0377 -0.9973 -0.0629
vn 0.0736 0.3916 0.9172
vn 0.9852 0.1572 0.0683
vn -0.3747 -0.2889 -0.8810
vn 0.9541 0.2810 -0.1033
vn -0.6294 0.3041 0.7151
vn -0.4269 -0.2237 0.8762
vn -0.3894 -0.3760 -0.8408
vn 0.1452 -0.1228 0.9817
vn 0.8597 0.3772 -0.3446
vn 0.6015 -0.1297 0.7883
vn 0.1240 -0.1857 0.9747
vn 0.4180 -0.2293 -0.8790
vn 0.2402 -0.1927 -0.9514
vn -0.9741 -0.2138 0.0738
vn 0.0263 0.4117 0.9109
vn -0.7710 -0.4312 0.4686
vn -0.9796 -0.1417 0.1426
vn -0.3623 -0.1004 0.9266
vn 0.9507 0.2722 -0.1489
vn 0.3281 -0.2152 -0.9198
vn 0.1699 -0.1334 0.9764
vn 0.6360 0.2404 0.7333
vn 0.3204 -0.1852 -0.9290
vn -0.9672 -0.2537 -0.0100
vn -0.9867 -0.1627 0.0003
vn -0.7115 -0.1593 -0.6844
vn 0.8643 -0.0044 0.5029
vn -0.9962 0.0015 0.0876
vn 0.9771 0.0068 0.2126
vn -0.9683 -0.0650 -0.2410
vn -0.3934 -0.1585 -0.9056
vn 0.9924 -0.0928 -0.0814
vn 0.7641 0.1556 -0.6260
vn 0.7046 -0.0693 -0.7062
vn -0.5167 0.2325 0.8240
vn 0.6601 -0.0657 -0.7483
vn 0.9686 -0.0070 -0.2486
vn 0.0361 0.3853 0.9221
vn 0.8402 0.1959 0.5056
vn 0.5757 0.0844 0.8133
vn 0.2787 -0.2206 -0.9347
vn 0.9899 0.0497 0.1328
vn 0.1846 -0.0613 0.9809
vn -0.2022 -0.1621 -0.9658
vn 0.9587 0.0852 -0.2715
vn 0.1925 -0.2772 -0.9413
vn -0.6006 0.3030 0.7399
vn 0.4173 -0.1832 -0.8901
vn -0.5208 -0.3479 0.7796
vn 0.0549 -0.0616 0.9966
vn -0.7111 0.4060 0.5740
vn 0.1757 -0.1272 0.9762
vn -0.9908 0.0118 -0.1346
vn 0.1151 -0.1369 0.9839
vn -0.5138 -0.3321 0.7910
vn 0.0441 -0.0236 0.9987
vn 0.6201 0.4643 0.6324
vn -0.9412 -0.3198 0.1091
vn -0.6790 -0.3030 0.6687
vn -0.7746 -0.2754 0.5694
vn 0.7119 -0.2300 -0.6635
vn -0.8335 -0.2004 -0.5148
vn -0.8631 -0.2877 -0.4150
vn -0.9718 -0.2054 0.1157
vn 0.3507 0.0678 -0.9340
vn 0.9256 0.2923 0.2406
vn -0.6372 -0.3140 -0.7038
vn -0.5109 -0.3127 -0.8007
vn -0.8896 0.0577 0.4531
vn 0.9229 0.1026 -0.3712
vn -0.5223 -0.1666 0.8363
vn -0.4465 -0.0398 -0.8939
vn -0.8757 0.1963 0.4411
vn 0.6376 0.2377 0.7328
vn -0.4147 -0.1639 -0.8951
vn -0.6505 0.1770 0.7386
vn -0.2690 -0.4772 0.8366
vn 0.4027 0.0330 -0.9147
vn -0.9587 0.2837 0.0194
vn 0.2387 0.1870 0.9529
vn 0.1392 0.4462 0.8840
vn 0.7156 0.4092 0.5661
vn -0.9670 -0.2378 0.0917
vn -0.9112 -0.3939 -0.1206
vn 0.9336 0.2642 0.2419
vn -0.8995 -0.0677 -0.4316
vn -0.6676 0.1804 0.7223
vn 0.8551 0.3063 0.4182
vn 0.9279 0.2451 0.2809
vn 0.6885 -0.1994 -0.6973
vn -0.8995 0.4286 0.0848
vn -0.0271 -0.0215 0.9994
vn 0.3784 -0.5736 -0.7265
vn -0.0028 0.0216 0.9998
vn -0.0326 0.1057 -0.9939
vn -0.9265 0.0964 0.3638
vn 0.8467 0.5260 0.0801
vn -0.8934 0.4442 0.0666
vn -0.8868 0.4546 0.0834
vn 0.2462 0.0288 -0.9688
vn 0.8680 0.4830 -0.1156
vn 0.8518 0.2860 0.4389
vn 0.9425 0.0481 -0.3306
vn 0.8070 0.3888 -0.4445
vn -0.8451 -0.3553 0.3994
vn -0.8841 0.3267 -0.3341
vn -0.8160 0.2304 -0.5302
vn -0.1263 -0.0973 0.9872
vn 0.8467 0.3977 -0.3535
vn 0.8949 0.3382 0.2910
vn -0.9635 -0.1396 -0.2282
vn -0.7550 0.1793 0.6308
vn -0.6069 0.6162 -0.5019
vn -0.1732 -0.3626 0.9157
vn -0.3817 -0.6107 0.6938
vn 0.3419 -0.6732 0.6557
vn -0.9304 0.0271 -0.3655
vn -0.6266 0.0886 0.7743
vn 0.7211 -0.1108 -0.6839
vn -0.5681 -0.3081 -0.7631
vn -0.5771 0.2826 0.7662
vn -0.9279 0.1332 0.3482
vn -0.9105 0.2091 0.3568
vn -0.0873 0.4196 0.9035
vn -0.9861 -0.0684 0.1515
vn 0.3595 0.0405 -0.9323
vn -0.1587 0.3718 -0.9146
vn 0.9928 0.0961 0.0713
vn -0.3716 -0.3932 -0.8410
vn 0.1762 -0.2628 -0.9486
vn 0.5740 0.0091 -0.8188
vn 0.8892 0.2266 -0.3975
vn 0.2077 -0.2482 -0.9462
vn -0.2870 -0.2132 -0.9339
vn 0.4200 -0.0754 -0.9044
vn -0.3702 0.0164 -0.9288
vn -0.8863 0.2637 -0.3807
vn -0.8459 0.4822 0.2280
vn 0.8728 0.2063 0.4423
vn 0.8925 0.3364 -0.3004
vn -0.7454 0.0587 0.6640
vn 0.0772 0.5812 0.8101
vn -0.4541 -0.1992 -0.8684
vn -0.9420 0.3286 -0.0685
vn 0.8215 0.5340 -0.2002
vn -0.9855 -0.1319 0.1064
vn -0.9467 -0.1015 0.3056
vn -0.4548 0.3082 0.8356
vn -0.4558 0.3016 0.8374
vn -0.9856 0.1666 0.0277
vn -0.6733 -0.2383 -0.6999
vn 0.7933 0.2937 0.5333
vn 0.4692 0.3182 0.8238
vn -0.9548 -0.0143 0.2969
vn -0.7414 0.1594 0.6518
vn -0.6575 0.2224 0.7199
vn 0.0057 -0.0893 0.9960
vn 0.9229 -0.0964 -0.3729
vn -0.9709 -0.2072 0.1200
vn 0.0137 -0.0769 0.9969
vn -0.9872 -0.1255 -0.0988
vn 0.8085 -0.2766 -0.5194
vn 0.7306 -0.0123 0.6827
vn -0.3054 -0.2769 -0.9111
vn 0.9003 -0.1229 -0.4175
vn -0.4570 -0.1098 -0.8826
vn -0.6787 -0.4063 -0.6118
vn 0.7085 -0.0611 -0.7031
vn -0.5352 -0.3804 -0.7543
vn 0.2911 -0.8889 0.3536
vn 0.6177 -0.0639 0.7838
vn 0.1690 -0.9322 -0.3199
vn -0.7124 -0.0887 0.6961
vn 0.8274 0.0139 0.5615
vn 0.6924 0.1211 0.7112
vn 0.2161 -0.8428 -0.4929
vn 0.8531 -0.1161 -0.5087
vn 0.1690 -0.8519 -0.4956
vn -0.5107 0.2917 0.8088
vn 0.9234 -0.0833 -0.3746
vn 0.4461 -0.8281 0.3395
vn 0.6153 0.1116 0.7803
vn -0.3589 -0.2682 -0.8940
vn 0.8956 0.3267 0.3019
vn 0.2155 -0.9589 -0.1846
vn 0.2142 -0.8432 -0.4930
vn -0.5608 -0.1304 0.8176
vn -0.8651 -0.2556 -0.4316
vn -0.4951 -0.3051 0.8135
vn -0.4530 -0.0422 0.8905
vn 0.0461 -0.2161 0.9753
vn -0.5490 -0.1418 0.8237
vn 0.1308 -0.0659 0.9892
vn -0.6114 -0.1698 -0.7729
vn 0.2398 -0.2001 -0.9500
vn -0.1166 0.4132 -0.9031
vn 0.9291 -0.0823 -0.3605
vn 0.4025 -0.9154 -0.0055
vn -0.7802 -0.1190 -0.6141
vn -0.9789 -0.1541 -0.1344
vn 0.8255 -0.1866 -0.5327
vn 0.4028 -0.9153 -0.0009
vn 0.8207 -0.1125 -0.5602
vn -0.2036 -0.1512 -0.9673
vn -0.9806 -0.1932 0.0334
vn -0.2409 -0.4577 -0.8559
vn 0.1719 -0.9318 -0.3198
vn -0.5652 0.3273 0.7573
vn 0.6613 -0.0025 0.7501
vn -0.2519 -0.1858 -0.9497
vn 0.3404 -0.1986 -0.9191
vn 0.8214 0.0985 -0.5618
vn -0.7900 -0.2815 -0.5447
vn 0.6171 0.1563 0.7712
vn 0.8113 -0.2779 -0.5144
vn 0.8984 0.1561 -0.4104
vn -0.9709 -0.2069 0.1208
vn 0.0033 -0.0706 0.9975
vn -0.9881 -0.1430 -0.0565
vn 0.9876 0.0904 0.1284
vn 0.7574 -0.2948 -0.5826
vn 0.7865 -0.1060 0.6084
vn 0.2138 -0.9596 -0.1828
vn 0.2161 -0.9588 -0.1844
vn -0.9660 -0.2104 -0.1502
vn -0.7048 -0.1849 -0.6848
vn 0.6393 0.4855 0.5964
vn 0.3287 -0.2055 -0.9218
vn 0.7400 -0.0253 0.6722
vn 0.0468 -0.0290 0.9985
vn 0.9916 0.0014 0.1295
vn 0.7432 -0.1476 0.6526
vn -0.3430 -0.2278 -0.9113
vn 0.5878 -0.1656 0.7919
vn 0.3098 -0.1936 -0.9309
vn -0.7581 -0.1632 0.6314
vn 0.1016 -0.1728 0.9797
vn 0.0233 0.2882 -0.9573
vn -0.2641 -0.1303 -0.9556
vn -0.1447 -0.1922 0.9706
vn 0.8212 0.4211 0.3851
vn -0.9874 -0.1510 -0.0481
vn 0.1713 -0.9322 -0.3188
vn -0.8370 -0.2121 -0.5044
vn -0.7096 -0.1934 -0.6776
vn -0.4202 -0.1414 -0.8964
vn 0.6539 0.0479 0.7551
vn 0.6271 0.1154 0.7704
vn 0.8261 -0.1039 -0.5538
vn -0.6750 -0.2297 0.7011
vn 0.9775 0.1245 0.1701
vn -0.4117 -0.2381 -0.8797
vn 0.9915 0.1236 0.0394
vn -0.4781 -0.0204 0.8781
vn 0.0776 -0.2472 0.9659
vn -0.9875 -0.1500 -0.0479
vn -0.8091 -0.1566 -0.5664
vn -0.7221 -0.2634 0.6397
vn -0.7395 -0.1981 -0.6434
vn 0.9948 0.0639 0.0792
vn -0.9717 -0.2058 0.1157
vn -0.7827 -0.1051 -0.6134
vn -0.7573 -0.4541 -0.4693
vn -0.9657 -0.2497 -0.0714
vn 0.1644 -0.2286 -0.9595
vn 0.1665 -0.8529 -0.4949
vn -0.7301 -0.1224 -0.6723
vn 0.2159 -0.1685 0.9618
vn 0.8263 -0.0900 -0.5560
vn -0.7980 -0.1269 -0.5891
vn 0.4035 -0.9150 -0.0060
vn 0.7870 -0.0881 0.6106
vt 0.000000 0.000000
vt 0.667915 0.024474
vt 0.542154 0.130000
vt 0.513646 0.291676
s 0
usemtl Material.048
f 114/1/1 122/1/1 125/1/1
f 157/1/2 140/1/2 145/1/2
f 157/1/3 14/1/3 143/1/3
f 90/1/4 135/1/4 134/1/4
f 90/1/5 16/1/5 133/1/5
f 135/1/6 90/1/6 132/1/6
f 132/1/7 18/1/7 145/1/7
f 95/1/8 134/1/8 135/1/8
f 18/1/9 144/1/9 145/1/9
f 119/1/10 59/1/10 131/1/10
f 126/1/11 119/1/11 124/1/11
f 90/1/12 137/1/12 18/1/12
f 95/1/13 47/1/13 17/1/13
f 90/1/14 134/1/14 16/1/14
f 132/1/15 145/1/15 140/1/15
f 131/1/16 133/1/16 119/1/16
f 121/1/17 44/1/17 45/1/17
f 129/1/18 124/1/18 110/1/18
f 121/1/19 26/1/19 97/1/19
f 127/1/20 119/1/20 126/1/20
f 126/1/21 44/1/21 42/1/21
f 121/1/22 113/1/22 117/1/22
f 127/1/23 92/1/23 119/1/23
f 131/1/24 137/1/24 133/1/24
f 126/1/25 129/1/25 44/1/25
f 121/1/26 97/1/26 113/1/26
f 118/1/27 112/1/27 116/1/27
f 42/1/28 121/1/28 117/1/28
f 17/1/29 59/1/29 92/1/29
f 114/1/30 125/1/30 42/1/30
f 127/1/31 125/1/31 92/1/31
f 90/1/32 18/1/32 132/1/32
f 131/1/33 47/1/33 137/1/33
f 157/1/34 15/1/34 14/1/34
f 114/1/35 19/1/35 122/1/35
f 119/1/36 133/1/36 124/1/36
f 74/1/37 166/1/37 164/1/37
f 74/1/38 84/1/38 67/1/38
f 59/1/39 17/1/39 131/1/39
f 42/1/40 117/1/40 114/1/40
f 118/1/41 111/1/41 112/1/41
f 138/1/42 132/1/42 140/1/42
f 125/1/43 127/1/43 42/1/43
f 126/1/44 124/1/44 129/1/44
f 18/1/45 12/1/45 144/1/45
f 92/1/46 110/1/46 17/1/46
f 128/1/47 110/1/47 92/1/47
f 95/1/48 17/1/48 134/1/48
f 18/1/49 139/1/49 12/1/49
f 90/1/50 133/1/50 137/1/50
f 135/1/51 132/1/51 138/1/51
f 121/1/52 45/1/52 26/1/52
f 157/1/53 143/1/53 140/1/53
f 129/1/54 110/1/54 128/1/54
f 118/1/55 116/1/55 111/1/55
f 59/1/56 119/1/56 92/1/56
f 167/1/57 78/1/57 71/1/57
f 8/2/58 9/3/58 10/4/58
f 167/1/59 7/1/59 165/1/59
f 31/1/60 77/1/60 136/1/60
f 164/1/61 166/1/61 152/1/61
f 89/1/62 142/1/62 159/1/62
f 13/1/63 25/1/63 146/1/63
f 69/1/64 78/1/64 64/1/64
f 74/1/65 20/1/65 166/1/65
f 46/1/66 23/1/66 49/1/66
f 112/1/67 117/1/67 113/1/67
f 23/1/68 41/1/68 4/1/68
f 69/1/69 49/1/69 21/1/69
f 88/1/70 83/1/70 57/1/70
f 39/1/71 84/1/71 83/1/71
f 66/1/72 24/1/72 54/1/72
f 167/1/73 165/1/73 160/1/73
f 122/1/74 128/1/74 125/1/74
f 154/1/75 34/1/75 155/1/75
f 167/1/76 38/1/76 78/1/76
f 107/1/77 37/1/77 123/1/77
f 39/1/78 83/1/78 70/1/78
f 46/1/79 49/1/79 69/1/79
f 165/1/80 91/1/80 151/1/80
f 1/1/81 51/1/81 2/1/81
f 62/1/82 54/1/82 24/1/82
f 62/1/83 85/1/83 54/1/83
f 53/1/84 56/1/84 62/1/84
f 31/1/85 5/1/85 102/1/85
f 154/1/86 108/1/86 162/1/86
f 107/1/87 48/1/87 136/1/87
f 33/1/88 155/1/88 34/1/88
f 20/1/89 67/1/89 35/1/89
f 31/1/90 48/1/90 107/1/90
f 161/1/91 37/1/91 3/1/91
f 136/1/92 50/1/92 57/1/92
f 96/1/93 25/1/93 150/1/93
f 89/1/94 73/1/94 148/1/94
f 107/1/95 100/1/95 82/1/95
f 165/1/96 96/1/96 160/1/96
f 106/1/97 31/1/97 102/1/97
f 21/1/98 28/1/98 43/1/98
f 74/1/99 58/1/99 84/1/99
f 31/1/100 107/1/100 5/1/100
f 43/1/101 60/1/101 21/1/101
f 1/1/102 36/1/102 39/1/102
f 107/1/103 82/1/103 37/1/103
f 57/1/104 74/1/104 3/1/104
f 112/1/105 115/1/105 114/1/105
f 70/1/106 83/1/106 88/1/106
f 46/1/107 30/1/107 63/1/107
f 69/1/108 87/1/108 78/1/108
f 150/1/109 25/1/109 147/1/109
f 43/1/110 7/1/110 71/1/110
f 26/1/111 19/1/111 97/1/111
f 60/1/112 69/1/112 21/1/112
f 69/1/113 64/1/113 54/1/113
f 60/1/114 43/1/114 78/1/114
f 80/1/115 32/1/115 5/1/115
f 122/1/116 26/1/116 128/1/116
f 78/1/117 38/1/117 66/1/117
f 139/1/118 135/1/118 138/1/118
f 136/1/119 57/1/119 100/1/119
f 101/1/120 27/1/120 11/1/120
f 108/1/121 155/1/121 163/1/121
f 130/1/122 10/1/122 65/1/122
f 81/1/123 93/1/123 89/1/123
f 123/1/124 109/1/124 91/1/124
f 152/1/125 33/1/125 40/1/125
f 163/1/126 152/1/126 166/1/126
f 34/1/127 153/1/127 150/1/127
f 109/1/128 161/1/128 89/1/128
f 76/1/129 46/1/129 52/1/129
f 158/1/130 86/1/130 93/1/130
f 154/1/131 153/1/131 34/1/131
f 91/1/132 165/1/132 80/1/132
f 15/1/133 73/1/133 86/1/133
f 146/1/134 141/1/134 13/1/134
f 139/1/135 29/1/135 95/1/135
f 81/1/136 89/1/136 161/1/136
f 138/1/137 143/1/137 141/1/137
f 96/1/138 151/1/138 98/1/138
f 96/1/139 165/1/139 151/1/139
f 80/1/140 7/1/140 32/1/140
f 108/1/141 66/1/141 162/1/141
f 108/1/142 53/1/142 66/1/142
f 109/1/143 159/1/143 91/1/143
f 149/1/144 158/1/144 33/1/144
f 167/1/145 153/1/145 154/1/145
f 151/1/146 159/1/146 98/1/146
f 80/1/147 123/1/147 91/1/147
f 144/1/148 157/1/148 145/1/148
f 14/1/149 147/1/149 13/1/149
f 98/1/150 12/1/150 146/1/150
f 89/1/151 93/1/151 73/1/151
f 146/1/152 25/1/152 98/1/152
f 15/1/153 148/1/153 73/1/153
f 149/1/154 34/1/154 150/1/154
f 80/1/155 5/1/155 107/1/155
f 143/1/156 13/1/156 141/1/156
f 143/1/157 14/1/157 13/1/157
f 161/1/158 3/1/158 164/1/158
f 89/1/159 159/1/159 109/1/159
f 142/1/160 98/1/160 159/1/160
f 107/1/161 136/1/161 100/1/161
f 144/1/162 148/1/162 157/1/162
f 139/1/163 95/1/163 135/1/163
f 86/1/164 149/1/164 147/1/164
f 86/1/165 14/1/165 15/1/165
f 167/1/166 71/1/166 72/1/166
f 161/1/167 123/1/167 37/1/167
f 107/1/168 123/1/168 80/1/168
f 149/1/169 33/1/169 34/1/169
f 13/1/170 147/1/170 25/1/170
f 143/1/171 138/1/171 140/1/171
f 17/1/172 47/1/172 131/1/172
f 47/1/173 95/1/173 29/1/173
f 47/1/174 29/1/174 137/1/174
f 86/1/175 147/1/175 14/1/175
f 167/1/176 162/1/176 38/1/176
f 97/1/177 116/1/177 113/1/177
f 166/1/178 20/1/178 105/1/178
f 167/1/179 160/1/179 153/1/179
f 110/1/180 134/1/180 17/1/180
f 150/1/181 147/1/181 149/1/181
f 96/1/182 98/1/182 25/1/182
f 108/1/183 154/1/183 155/1/183
f 124/1/184 133/1/184 16/1/184
f 124/1/185 16/1/185 110/1/185
f 144/1/186 142/1/186 89/1/186
f 128/1/187 26/1/187 45/1/187
f 164/1/188 3/1/188 74/1/188
f 129/1/189 45/1/189 44/1/189
f 144/1/190 89/1/190 148/1/190
f 74/1/191 57/1/191 58/1/191
f 81/1/192 40/1/192 93/1/192
f 161/1/193 164/1/193 81/1/193
f 93/1/194 86/1/194 73/1/194
f 86/1/195 158/1/195 149/1/195
f 112/1/196 116/1/196 115/1/196
f 98/1/197 142/1/197 12/1/197
f 116/1/198 112/1/198 113/1/198
f 12/1/199 139/1/199 138/1/199
f 167/1/200 72/1/200 7/1/200
f 74/1/201 67/1/201 20/1/201
f 97/1/202 19/1/202 115/1/202
f 121/1/203 42/1/203 44/1/203
f 26/1/204 122/1/204 19/1/204
f 128/1/205 92/1/205 125/1/205
f 12/1/206 141/1/206 146/1/206
f 12/1/207 138/1/207 141/1/207
f 97/1/208 115/1/208 116/1/208
f 33/1/209 158/1/209 40/1/209
f 42/1/210 127/1/210 126/1/210
f 112/1/211 114/1/211 117/1/211
f 116/1/212 112/1/212 111/1/212
f 114/1/213 115/1/213 19/1/213
f 167/1/214 154/1/214 162/1/214
f 78/1/215 87/1/215 60/1/215
f 4/1/216 94/1/216 75/1/216
f 65/1/217 10/1/217 9/1/217
f 76/1/218 6/1/218 41/1/218
f 53/1/219 24/1/219 66/1/219
f 75/1/220 55/1/220 68/1/220
f 4/1/221 75/1/221 23/1/221
f 81/1/222 152/1/222 40/1/222
f 94/1/223 4/1/223 2/1/223
f 93/1/224 40/1/224 158/1/224
f 105/1/225 20/1/225 53/1/225
f 50/1/226 88/1/226 57/1/226
f 163/1/227 166/1/227 105/1/227
f 139/1/228 18/1/228 29/1/228
f 23/1/229 79/1/229 21/1/229
f 104/1/230 2/1/230 156/1/230
f 64/1/231 78/1/231 66/1/231
f 32/1/232 7/1/232 99/1/232
f 102/1/233 28/1/233 106/1/233
f 8/1/234 103/1/234 6/1/234
f 3/1/235 82/1/235 100/1/235
f 104/1/236 11/1/236 1/1/236
f 150/1/237 153/1/237 96/1/237
f 55/1/238 75/1/238 94/1/238
f 137/1/239 29/1/239 18/1/239
f 5/1/240 99/1/240 102/1/240
f 39/1/241 61/1/241 84/1/241
f 144/1/242 12/1/242 142/1/242
f 10/1/243 156/1/243 8/1/243
f 103/1/244 4/1/244 6/1/244
f 30/1/245 69/1/245 63/1/245
f 163/1/246 155/1/246 33/1/246
f 52/1/247 46/1/247 63/1/247
f 76/1/248 52/1/248 9/1/248
f 46/1/249 76/1/249 41/1/249
f 54/1/250 63/1/250 69/1/250
f 41/1/251 23/1/251 46/1/251
f 163/1/252 33/1/252 152/1/252
f 84/1/253 58/1/253 83/1/253
f 110/1/254 16/1/254 134/1/254
f 88/1/255 55/1/255 94/1/255
f 103/1/256 8/1/256 120/1/256
f 22/1/257 62/1/257 35/1/257
f 62/1/258 24/1/258 53/1/258
f 70/1/259 88/1/259 94/1/259
f 120/1/260 2/1/260 4/1/260
f 88/1/261 50/1/261 68/1/261
f 61/1/262 39/1/262 36/1/262
f 85/1/263 52/1/263 54/1/263
f 45/1/264 129/1/264 128/1/264
f 156/1/265 10/1/265 11/1/265
f 160/1/266 96/1/266 153/1/266
f 79/1/267 106/1/267 21/1/267
f 36/1/268 1/1/268 11/1/268
f 51/1/269 1/1/269 39/1/269
f 82/1/270 3/1/270 37/1/270
f 105/1/271 53/1/271 108/1/271
f 28/1/272 102/1/272 43/1/272
f 55/1/273 88/1/273 68/1/273
f 109/1/274 123/1/274 161/1/274
f 52/1/275 65/1/275 9/1/275
f 87/1/276 69/1/276 60/1/276
f 27/1/277 101/1/277 52/1/277
f 68/1/278 77/1/278 106/1/278
f 100/1/279 57/1/279 3/1/279
f 43/1/280 99/1/280 7/1/280
f 2/1/281 120/1/281 156/1/281
f 120/1/282 8/1/282 156/1/282
f 27/1/283 85/1/283 62/1/283
f 36/1/284 22/1/284 35/1/284
f 165/1/285 7/1/285 80/1/285
f 70/1/286 51/1/286 39/1/286
f 5/1/287 32/1/287 99/1/287
f 76/1/288 8/1/288 6/1/288
f 75/1/289 68/1/289 106/1/289
f 79/1/290 23/1/290 75/1/290
f 152/1/291 81/1/291 164/1/291
f 41/1/292 6/1/292 4/1/292
f 51/1/293 70/1/293 2/1/293
f 54/1/294 64/1/294 66/1/294
f 49/1/295 23/1/295 21/1/295
f 157/1/296 148/1/296 15/1/296
f 35/1/297 61/1/297 36/1/297
f 69/1/298 30/1/298 46/1/298
f 151/1/299 91/1/299 159/1/299
f 130/1/300 52/1/300 101/1/300
f 11/1/301 104/1/301 156/1/301
f 10/1/302 101/1/302 11/1/302
f 36/1/303 27/1/303 22/1/303
f 67/1/304 84/1/304 35/1/304
f 28/1/305 21/1/305 106/1/305
f 99/1/306 43/1/306 102/1/306
f 50/1/307 136/1/307 68/1/307
f 52/1/308 63/1/308 54/1/308
f 77/1/309 31/1/309 106/1/309
f 61/1/310 35/1/310 84/1/310
f 77/1/311 68/1/311 136/1/311
f 76/1/312 9/1/312 8/1/312
f 43/1/313 71/1/313 78/1/313
f 10/1/314 130/1/314 101/1/314
f 62/1/315 22/1/315 27/1/315
f 162/1/316 66/1/316 38/1/316
f 56/1/317 53/1/317 20/1/317
f 48/1/318 31/1/318 136/1/318
f 52/1/319 130/1/319 65/1/319
f 56/1/320 35/1/320 62/1/320
f 105/1/321 108/1/321 163/1/321
f 27/1/322 52/1/322 85/1/322
f 58/1/323 57/1/323 83/1/323
f 2/1/324 104/1/324 1/1/324
f 36/1/325 11/1/325 27/1/325
f 7/1/326 72/1/326 71/1/326
f 2/1/327 70/1/327 94/1/327
f 35/1/328 56/1/328 20/1/328
f 4/1/329 103/1/329 120/1/329
f 106/1/330 79/1/330 75/1/330
